<?xml version="1.0" encoding="utf-8"?>
<!-- Generator: Adobe Illustrator 16.0.0, SVG Export Plug-In . SVG Version: 6.00 Build 0)  -->
<!DOCTYPE svg PUBLIC "-//W3C//DTD SVG 1.1//EN" "http://www.w3.org/Graphics/SVG/1.1/DTD/svg11.dtd">
<svg version="1.1" id="Layer_1" xmlns="http://www.w3.org/2000/svg" xmlns:xlink="http://www.w3.org/1999/xlink" x="0px" y="0px"
	 width="132.081px" height="64.096px" viewBox="0 0 132.081 64.096" enable-background="new 0 0 132.081 64.096"
	 xml:space="preserve">
<g>
	<circle opacity="0.25" fill="#C3CEE3" cx="116.589" cy="15.564" r="8.718"/>
	<circle fill="none" stroke="#C3CEE3" stroke-width="0.797" stroke-miterlimit="10" cx="116.589" cy="15.564" r="8.718"/>
</g>
<g>
	<path fill="#C3CEE3" d="M114.209,16.104c0.209,0,0.358,0.04,0.697,0.169c0.209,0.07,0.389,0.129,0.588,0.129
		c0.328,0,0.966-0.189,1.195-0.837c0.03-0.07,0.05-0.129,0.14-0.129c0.08,0,0.119,0.05,0.119,0.1c0,0.269-0.577,1.534-1.564,1.534
		c-0.288,0-0.468-0.159-0.638-0.369c-0.249-0.289-0.349-0.378-0.577-0.378c-0.319,0-0.618,0.269-0.848,0.618
		c-0.06,0.11-0.079,0.129-0.159,0.129c-0.02,0-0.119,0-0.119-0.1c0-0.069,0.349-0.638,1.026-1.305l0.896-0.837
		c0.189-0.159,1.026-0.877,1.385-1.305c-0.259,0-0.368,0-0.767-0.149c-0.229-0.08-0.419-0.149-0.628-0.149
		c-0.08,0-0.658,0.01-0.848,0.468c-0.02,0.06-0.039,0.109-0.129,0.109s-0.12-0.06-0.12-0.109c0-0.209,0.459-1.136,1.206-1.136
		c0.329,0,0.498,0.2,0.688,0.429c0.149,0.169,0.269,0.319,0.508,0.319s0.448-0.16,0.748-0.638c0.05-0.09,0.079-0.11,0.149-0.11
		c0.02,0,0.109,0,0.109,0.1c0,0.04-0.22,0.519-1.166,1.445c-0.358,0.359-0.977,0.887-0.977,0.897
		c-0.358,0.309-0.647,0.558-1.186,1.136C114.029,16.104,114.188,16.104,114.209,16.104z"/>
</g>
<g>
	<path fill="#C3CEE3" d="M118.523,16.518c0.174-0.433,0.216-0.537,0.216-0.697c0-0.188-0.062-0.244-0.174-0.244
		c-0.259,0-0.565,0.251-0.746,0.851c-0.021,0.077-0.028,0.112-0.126,0.112c-0.021,0-0.118,0-0.118-0.091
		c0-0.119,0.32-1.067,1.011-1.067c0.384,0,0.662,0.265,0.662,0.593c0,0.07-0.021,0.153-0.041,0.223
		c-0.028,0.083-0.279,0.718-0.342,0.886c-0.077,0.181-0.153,0.369-0.224,0.558c-0.062,0.153-0.111,0.286-0.111,0.446
		c0,0.153,0.035,0.244,0.174,0.244c0.272,0,0.579-0.286,0.739-0.844c0.028-0.077,0.035-0.119,0.133-0.119
		c0.021,0,0.111,0,0.111,0.091c0,0.104-0.307,1.067-1.004,1.067c-0.384,0-0.662-0.265-0.662-0.593c0-0.119,0.034-0.202,0.062-0.293
		L118.523,16.518z M119.116,14.481c-0.188,0-0.279-0.146-0.279-0.265c0-0.202,0.202-0.383,0.391-0.383
		c0.195,0,0.279,0.153,0.279,0.265C119.507,14.286,119.318,14.481,119.116,14.481z"/>
</g>
<circle fill="none" stroke="#C3CEE3" stroke-width="0.797" stroke-miterlimit="10" cx="62.851" cy="15.564" r="8.789"/>
<g>
	<path fill="#C3CEE3" d="M61.814,17.228c-0.01,0.07-0.239,1.275-0.558,1.903c-0.179,0.378-0.578,0.966-1.126,0.966
		c-0.409,0-0.847-0.239-0.847-0.688c0-0.378,0.289-0.598,0.548-0.598c0.189,0,0.369,0.12,0.369,0.349
		c0,0.149-0.09,0.508-0.548,0.538c0.189,0.179,0.438,0.179,0.478,0.179c0.518,0,0.688-0.907,0.867-1.873l0.748-3.936h-0.658
		c-0.189,0-0.279,0-0.279-0.12c0-0.189,0.109-0.189,0.299-0.189h0.688c0.239-1.255,0.269-1.355,0.329-1.564
		c0.299-0.986,0.927-1.166,1.266-1.166c0.409,0,0.867,0.229,0.867,0.688c0,0.378-0.289,0.598-0.548,0.598
		c-0.189,0-0.369-0.12-0.369-0.349c0-0.149,0.1-0.499,0.538-0.538c-0.189-0.179-0.448-0.179-0.488-0.179
		c-0.209,0-0.379,0.149-0.468,0.338c-0.06,0.12-0.199,0.827-0.239,1.037l-0.209,1.136h0.827c0.169,0,0.269,0,0.269,0.109
		c0,0.2-0.1,0.2-0.299,0.2h-0.857L61.814,17.228z"/>
</g>
<g>
	<path fill="#C3CEE3" d="M64.909,17.611c0.174-0.433,0.216-0.537,0.216-0.697c0-0.188-0.062-0.244-0.174-0.244
		c-0.258,0-0.565,0.251-0.746,0.851c-0.021,0.077-0.028,0.112-0.125,0.112c-0.021,0-0.119,0-0.119-0.091
		c0-0.119,0.321-1.067,1.011-1.067c0.383,0,0.663,0.265,0.663,0.593c0,0.07-0.021,0.153-0.042,0.223
		c-0.028,0.083-0.279,0.718-0.342,0.886c-0.077,0.181-0.153,0.37-0.223,0.558c-0.062,0.153-0.111,0.286-0.111,0.446
		c0,0.153,0.035,0.244,0.174,0.244c0.272,0,0.579-0.286,0.739-0.844c0.028-0.077,0.035-0.119,0.132-0.119
		c0.021,0,0.111,0,0.111,0.091c0,0.104-0.307,1.067-1.004,1.067c-0.384,0-0.663-0.265-0.663-0.593c0-0.119,0.035-0.202,0.063-0.293
		L64.909,17.611z M65.501,15.575c-0.188,0-0.279-0.146-0.279-0.265c0-0.202,0.202-0.383,0.391-0.383
		c0.195,0,0.279,0.153,0.279,0.265C65.892,15.379,65.704,15.575,65.501,15.575z"/>
</g>
<circle fill="none" stroke="#C3CEE3" stroke-width="0.797" stroke-miterlimit="10" cx="9.114" cy="15.564" r="8.717"/>
<g>
	<path fill="#C3CEE3" d="M8.371,14.907c-0.468-0.269-0.648-0.688-0.648-1.056c0-0.768,0.678-1.564,1.744-1.863
		c-0.01-0.04-0.07-0.189-0.07-0.389c0-0.03,0-0.488,0.179-0.488c0.07,0,0.12,0.05,0.12,0.129c0,0.02-0.05,0.229-0.05,0.369
		c0,0.169,0.02,0.239,0.05,0.329c0.259-0.05,0.498-0.05,0.627-0.05c0.389,0,0.827,0.01,0.827,0.269c0,0.309-0.638,0.309-0.887,0.309
		c-0.229,0-0.458,0-0.638-0.219c-0.747,0.369-1.106,1.136-1.106,1.694c0,0.189,0.04,0.518,0.299,0.777
		c0.369-0.12,0.658-0.12,0.837-0.12c0.389,0,0.817,0.02,0.817,0.269c0,0.309-0.628,0.309-0.927,0.309c-0.209,0-0.508,0-0.877-0.13
		c-0.837,0.418-1.226,1.286-1.226,1.694c0,0.418,0.299,0.708,0.748,0.887l0.598,0.239c0.209,0.07,0.409,0.149,0.608,0.229
		c0.129,0.05,0.468,0.179,0.607,0.229c0.11,0.05,0.479,0.229,0.479,0.708c0,0.488-0.418,1.066-1.036,1.066
		c-0.558,0-1.086-0.358-1.086-0.478c0-0.04,0.02-0.11,0.1-0.11c0.04,0,0.05,0.01,0.109,0.05c0.109,0.08,0.438,0.319,0.877,0.319
		c0.309,0,0.488-0.299,0.488-0.528c0-0.289-0.199-0.359-0.349-0.429l-1.206-0.468c-0.747-0.279-0.837-0.319-1.156-0.647
		c-0.02-0.03-0.289-0.309-0.289-0.787c0-0.359,0.219-1.295,1.306-2.013L8.371,14.907z M9.577,14.957c0.458,0,0.558-0.04,0.638-0.08
		c-0.179-0.05-0.219-0.06-0.568-0.06c-0.12,0-0.339,0-0.568,0.06C9.258,14.957,9.348,14.957,9.577,14.957z M10.274,12.246
		c0.438,0,0.538-0.05,0.618-0.08c-0.18-0.05-0.219-0.06-0.558-0.06c-0.11,0-0.319,0-0.479,0.05
		C9.965,12.246,10.085,12.246,10.274,12.246z"/>
</g>
<rect x="61.606" y="46.211" fill="#C3CEE3" width="2.491" height="2.491"/>
<g>
	<path fill="#C3CEE3" d="M37.429,58.478c-0.789,0-1.051-0.933-1.051-1.697c0-1.776,1.234-3.99,2.421-3.99
		c0.661,0,1.043,0.701,1.043,1.696C39.842,56.319,38.592,58.478,37.429,58.478z M37.198,55.769c-0.087,0.335-0.239,0.98-0.239,1.481
		c0,0.367,0.047,1.004,0.478,1.004c0.494,0,1.147-0.884,1.521-2.485H37.198z M39.03,55.499c0.096-0.391,0.239-1.035,0.239-1.481
		c0-0.151,0-1.004-0.478-1.004c-0.494,0-1.147,0.877-1.521,2.485H39.03z"/>
</g>
<g>
	<path fill="#C3CEE3" d="M43.313,55.746c-0.119,0-0.279,0-0.279-0.184c0-0.183,0.191-0.183,0.311-0.183h5.01
		c0.12,0,0.311,0,0.311,0.183c0,0.184-0.159,0.184-0.279,0.184H43.313z M43.346,57.434c-0.12,0-0.311,0-0.311-0.184
		c0-0.183,0.16-0.183,0.279-0.183h5.074c0.12,0,0.279,0,0.279,0.183c0,0.184-0.191,0.184-0.311,0.184H43.346z"/>
</g>
<g>
	<path fill="#C3CEE3" d="M53.917,55.244c0,0.247,0,0.303-0.024,0.398c-0.08,0.295-0.303,0.581-0.9,0.765
		c0.924,0.278,0.924,0.828,0.924,1.043v1.673c0,0.279,0,0.295,0.024,0.375c0.056,0.246,0.318,0.621,1.059,0.669
		c0.064,0.008,0.135,0.008,0.135,0.111c0,0.111-0.08,0.111-0.191,0.111c-0.279,0-0.772-0.063-1.115-0.263
		c-0.51-0.295-0.51-0.646-0.51-0.9v-1.625c0-0.294,0-0.311-0.024-0.406c-0.056-0.223-0.311-0.629-1.067-0.677
		c-0.063-0.008-0.135-0.008-0.135-0.111s0.064-0.104,0.159-0.111c0.653-0.04,1.052-0.423,1.067-0.837v-2.03
		c0.008-0.605,0.765-1.004,1.625-1.004c0.111,0,0.191,0,0.191,0.111c0,0.104-0.063,0.104-0.159,0.111
		c-0.494,0.032-0.725,0.231-0.78,0.271c-0.279,0.246-0.279,0.453-0.279,0.652V55.244z"/>
</g>
<g>
	<path fill="#C3CEE3" d="M56.558,56.407c0-0.956,0.223-2.39,1.291-3.505c0.063-0.071,0.462-0.478,0.589-0.478
		c0.08,0,0.111,0.056,0.111,0.096c0,0.039-0.008,0.048-0.119,0.151c-0.406,0.366-1.354,1.441-1.354,3.735
		c0,1.234,0.271,2.716,1.362,3.743c0.104,0.104,0.111,0.112,0.111,0.144c0,0.096-0.095,0.096-0.159,0.096
		C57.307,59.625,56.558,58.191,56.558,56.407z"/>
</g>
<g>
	<path fill="#C3CEE3" d="M62.304,55.602c0,0.191-0.008,0.247-0.223,0.247c-0.096,0-0.207,0-0.223-0.128
		c-0.016-0.223-0.056-0.652-0.948-0.652c-0.167,0-0.94,0-0.94,0.47c0,0.351,0.438,0.422,1.163,0.542
		c0.302,0.047,0.717,0.111,1.067,0.438c0.184,0.167,0.343,0.406,0.343,0.757c0,1.179-1.314,1.179-1.561,1.179
		c-0.167,0-0.59,0-0.988-0.239l-0.207,0.136c-0.167,0.104-0.183,0.104-0.255,0.104c-0.175,0-0.175-0.096-0.175-0.247v-0.82
		c0-0.183,0-0.247,0.223-0.247c0.175,0,0.191,0.017,0.231,0.151c0.127,0.375,0.358,0.829,1.171,0.829
		c0.247,0,0.948-0.017,0.948-0.574c0-0.438-0.589-0.533-0.988-0.597c-0.518-0.088-0.86-0.144-1.179-0.367
		c-0.199-0.151-0.406-0.382-0.406-0.74c0-1.067,1.298-1.067,1.569-1.067c0.136,0,0.51,0,0.844,0.136
		c0.271-0.136,0.295-0.136,0.359-0.136c0.175,0,0.175,0.096,0.175,0.247V55.602z"/>
</g>
<g>
	<path fill="#C3CEE3" d="M64.945,57.651c0.006-0.018,0.018-0.102,0.018-0.18c0-0.149-0.042-0.299-0.221-0.299
		c-0.329,0-0.664,0.311-0.837,0.7c-0.042,0.083-0.048,0.107-0.132,0.107c-0.083,0-0.107-0.048-0.107-0.084
		c0-0.113,0.418-0.921,1.094-0.921c0.383,0,0.682,0.239,0.682,0.574c0,0.084-0.018,0.138-0.03,0.197l-0.539,2.142
		c-0.179,0.718-0.897,0.944-1.298,0.944c-0.245,0-0.622-0.071-0.622-0.389c0-0.221,0.179-0.353,0.341-0.353
		c0.084,0,0.239,0.042,0.239,0.233c0,0.09-0.042,0.186-0.131,0.257c0,0.006-0.018,0.019-0.018,0.024
		c0,0.023,0.167,0.029,0.186,0.029c0.347,0,0.7-0.305,0.813-0.753L64.945,57.651z M65.322,56.209c-0.149,0-0.245-0.113-0.245-0.239
		c0-0.144,0.149-0.329,0.341-0.329c0.096,0,0.239,0.06,0.239,0.239S65.478,56.209,65.322,56.209z"/>
</g>
<g>
	<path fill="#C3CEE3" d="M67.964,58.398c-0.295,0-0.446-0.223-0.446-0.446c0-0.215,0.16-0.438,0.438-0.438
		c0.351,0,0.542,0.351,0.542,0.86c0,0.932-0.661,1.561-0.757,1.561c-0.056,0-0.12-0.048-0.12-0.111c0-0.04,0.017-0.056,0.048-0.08
		c0.494-0.493,0.605-0.947,0.605-1.465C68.274,58.287,68.155,58.398,67.964,58.398z"/>
</g>
<g>
	<path fill="#C3CEE3" d="M72.389,57.442c0,0.215,0.008,0.638,0.47,0.638c0.184,0,0.486-0.128,0.486-0.678v-0.39h0.446v0.406
		c0,0.629-0.446,1.035-1.052,1.035c-0.677,0-1.322-0.215-1.322-1.035v-2.143h-0.685v-0.335c0.796-0.016,1.202-0.812,1.21-1.601
		h0.446v1.521h1.242v0.414h-1.242V57.442z"/>
</g>
<g>
	<path fill="#C3CEE3" d="M76.408,57.651c0.006-0.018,0.018-0.102,0.018-0.18c0-0.149-0.041-0.299-0.221-0.299
		c-0.329,0-0.664,0.311-0.838,0.7c-0.041,0.083-0.048,0.107-0.131,0.107c-0.084,0-0.108-0.048-0.108-0.084
		c0-0.113,0.419-0.921,1.095-0.921c0.383,0,0.682,0.239,0.682,0.574c0,0.084-0.018,0.138-0.029,0.197l-0.538,2.142
		c-0.18,0.718-0.897,0.944-1.298,0.944c-0.246,0-0.623-0.071-0.623-0.389c0-0.221,0.18-0.353,0.342-0.353
		c0.083,0,0.239,0.042,0.239,0.233c0,0.09-0.042,0.186-0.132,0.257c0,0.006-0.018,0.019-0.018,0.024
		c0,0.023,0.167,0.029,0.185,0.029c0.348,0,0.7-0.305,0.813-0.753L76.408,57.651z M76.785,56.209c-0.149,0-0.245-0.113-0.245-0.239
		c0-0.144,0.149-0.329,0.341-0.329c0.096,0,0.239,0.06,0.239,0.239S76.94,56.209,76.785,56.209z"/>
</g>
<g>
	<path fill="#C3CEE3" d="M79.419,59.912c-0.063,0.071-0.462,0.478-0.59,0.478c-0.079,0-0.104-0.056-0.104-0.096
		s0.009-0.048,0.112-0.151c0.406-0.366,1.354-1.449,1.354-3.735c0-1.227-0.255-2.685-1.37-3.744
		c-0.096-0.095-0.096-0.111-0.096-0.143c0-0.04,0.024-0.096,0.104-0.096c0.144,0,0.868,0.645,1.259,1.378
		c0.494,0.939,0.621,1.848,0.621,2.604C80.709,57.363,80.486,58.796,79.419,59.912z"/>
</g>
<g>
	<path fill="#C3CEE3" d="M83.954,55.458c0,0.239,0.199,0.781,1.084,0.837c0.063,0.008,0.135,0.008,0.135,0.111
		s-0.056,0.104-0.159,0.111c-0.271,0.024-0.558,0.088-0.82,0.318c-0.239,0.224-0.239,0.406-0.239,0.948v1.601
		c-0.008,0.613-0.772,1.004-1.633,1.004c-0.104,0-0.19,0-0.19-0.111c0-0.104,0.056-0.104,0.159-0.111
		c0.558-0.04,0.78-0.271,0.804-0.287c0.264-0.271,0.264-0.343,0.264-0.876V57.57c0-0.247,0-0.303,0.023-0.398
		c0.111-0.406,0.454-0.629,0.9-0.765c-0.924-0.279-0.924-0.797-0.924-1.147v-1.672c0-0.112,0-0.168-0.017-0.247
		c-0.063-0.295-0.342-0.646-1.075-0.693c-0.063-0.008-0.135-0.008-0.135-0.111c0-0.111,0.087-0.111,0.19-0.111
		c0.351,0,0.876,0.088,1.211,0.311c0.422,0.287,0.422,0.621,0.422,0.853V55.458z"/>
</g>
<g>
	<path fill="#C3CEE3" d="M87.84,57.651c0.006-0.018,0.018-0.102,0.018-0.18c0-0.149-0.041-0.299-0.221-0.299
		c-0.329,0-0.664,0.311-0.838,0.7c-0.041,0.083-0.048,0.107-0.131,0.107c-0.084,0-0.108-0.048-0.108-0.084
		c0-0.113,0.419-0.921,1.095-0.921c0.383,0,0.682,0.239,0.682,0.574c0,0.084-0.018,0.138-0.029,0.197l-0.538,2.142
		c-0.18,0.718-0.897,0.944-1.298,0.944c-0.246,0-0.623-0.071-0.623-0.389c0-0.221,0.18-0.353,0.342-0.353
		c0.083,0,0.239,0.042,0.239,0.233c0,0.09-0.042,0.186-0.132,0.257c0,0.006-0.018,0.019-0.018,0.024
		c0,0.023,0.167,0.029,0.185,0.029c0.348,0,0.7-0.305,0.813-0.753L87.84,57.651z M88.217,56.209c-0.149,0-0.245-0.113-0.245-0.239
		c0-0.144,0.149-0.329,0.341-0.329c0.096,0,0.239,0.06,0.239,0.239S88.372,56.209,88.217,56.209z"/>
</g>
<line fill="none" stroke="#C3CEE3" stroke-width="0.3985" stroke-miterlimit="10" x1="72.04" y1="15.564" x2="105.48" y2="15.564"/>
<polyline fill="#C3CEE3" points="107.473,15.564 104.285,13.97 105.48,15.564 104.285,17.158 "/>
<line fill="none" stroke="#C3CEE3" stroke-width="0.3985" stroke-miterlimit="10" x1="18.23" y1="15.564" x2="51.671" y2="15.564"/>
<polyline fill="#C3CEE3" points="53.664,15.564 50.476,13.97 51.671,15.564 50.476,17.158 "/>
<line fill="none" stroke="#C3CEE3" stroke-width="0.3985" stroke-miterlimit="10" x1="62.852" y1="46.012" x2="62.852" y2="26.745"/>
<polyline fill="#C3CEE3" points="62.852,24.752 61.258,27.94 62.852,26.745 64.446,27.94 "/>
<g>
	<path fill="#C3CEE3" d="M124.525,34.806c-0.023,0.104-0.048,0.191-0.048,0.343c0,0.223,0.072,0.374,0.255,0.374
		c0.311,0,0.462-0.414,0.574-0.853c0.048-0.198,0.063-0.246,0.159-0.246s0.127,0.056,0.127,0.104c0,0.031-0.111,0.493-0.271,0.78
		c-0.063,0.136-0.247,0.438-0.613,0.438c-0.096,0-0.638-0.017-0.78-0.566c-0.144,0.16-0.582,0.566-1.092,0.566
		c-0.613,0-1.146-0.479-1.146-1.307c0-1.179,1.043-2.286,1.991-2.286c0.485,0,0.717,0.343,0.788,0.478l0.391-1.553
		c0.04-0.159,0.104-0.422,0.104-0.47c0-0.072,0-0.12-0.383-0.12c-0.095,0-0.207,0-0.207-0.112c0-0.143,0.08-0.151,0.255-0.167
		l0.446-0.032c0.184-0.016,0.431-0.04,0.462-0.04c0.096,0,0.128,0.072,0.128,0.112c0,0.008-0.024,0.111-0.032,0.127L124.525,34.806z
		 M124.111,34.074c0.048-0.207,0.247-0.988,0.247-1.02c0-0.096-0.151-0.678-0.669-0.678c-0.366,0-0.757,0.335-0.987,0.821
		c-0.176,0.35-0.391,1.202-0.391,1.576c0,0.415,0.183,0.749,0.55,0.749c0.255,0,0.669-0.167,1.067-0.717
		C124.008,34.463,124.008,34.448,124.111,34.074z"/>
</g>
<path fill="none" stroke="#C3CEE3" stroke-width="0.3985" stroke-miterlimit="10" d="M127.896,0.199H51.472
	c-2.201,0-3.985,1.784-3.985,3.985v33.674c0,2.201,1.784,3.985,3.985,3.985h76.425c2.201,0,3.985-1.784,3.985-3.985V4.185
	C131.882,1.983,130.098,0.199,127.896,0.199z"/>
</svg>
